<svg width="15" height="9" viewBox="0 0 15 9" fill="none" xmlns="http://www.w3.org/2000/svg">
<path d="M3.75 3.875C3.62639 3.875 3.50555 3.91166 3.40277 3.98033C3.29999 4.04901 3.21988 4.14662 3.17258 4.26082C3.12527 4.37503 3.11289 4.50069 3.13701 4.62193C3.16112 4.74317 3.22065 4.85453 3.30806 4.94194C3.39547 5.02935 3.50683 5.08888 3.62807 5.11299C3.74931 5.13711 3.87497 5.12473 3.98918 5.07742C4.10338 5.03012 4.20099 4.95001 4.26967 4.84723C4.33834 4.74445 4.375 4.62361 4.375 4.5C4.375 4.33424 4.30915 4.17527 4.19194 4.05806C4.07473 3.94085 3.91576 3.875 3.75 3.875ZM11.25 3.875C11.1264 3.875 11.0055 3.91166 10.9028 3.98033C10.8 4.04901 10.7199 4.14662 10.6726 4.26082C10.6253 4.37503 10.6129 4.50069 10.637 4.62193C10.6611 4.74317 10.7206 4.85453 10.8081 4.94194C10.8955 5.02935 11.0068 5.08888 11.1281 5.11299C11.2493 5.13711 11.375 5.12473 11.4892 5.07742C11.6034 5.03012 11.701 4.95001 11.7697 4.84723C11.8383 4.74445 11.875 4.62361 11.875 4.5C11.875 4.33424 11.8092 4.17527 11.6919 4.05806C11.5747 3.94085 11.4158 3.875 11.25 3.875ZM12.5 0.125H2.5C2.00272 0.125 1.52581 0.322544 1.17417 0.674175C0.822544 1.02581 0.625 1.50272 0.625 2V7C0.625 7.49728 0.822544 7.97419 1.17417 8.32583C1.52581 8.67746 2.00272 8.875 2.5 8.875H12.5C12.9973 8.875 13.4742 8.67746 13.8258 8.32583C14.1775 7.97419 14.375 7.49728 14.375 7V2C14.375 1.50272 14.1775 1.02581 13.8258 0.674175C13.4742 0.322544 12.9973 0.125 12.5 0.125ZM13.125 7C13.125 7.16576 13.0592 7.32473 12.9419 7.44194C12.8247 7.55915 12.6658 7.625 12.5 7.625H2.5C2.33424 7.625 2.17527 7.55915 2.05806 7.44194C1.94085 7.32473 1.875 7.16576 1.875 7V2C1.875 1.83424 1.94085 1.67527 2.05806 1.55806C2.17527 1.44085 2.33424 1.375 2.5 1.375H12.5C12.6658 1.375 12.8247 1.44085 12.9419 1.55806C13.0592 1.67527 13.125 1.83424 13.125 2V7ZM7.5 2.625C7.12916 2.625 6.76665 2.73497 6.45831 2.94099C6.14996 3.14702 5.90964 3.43986 5.76773 3.78247C5.62581 4.12508 5.58868 4.50208 5.66103 4.86579C5.73337 5.22951 5.91195 5.5636 6.17417 5.82583C6.4364 6.08805 6.77049 6.26663 7.13421 6.33897C7.49792 6.41132 7.87492 6.37419 8.21753 6.23227C8.56014 6.09036 8.85298 5.85004 9.05901 5.54169C9.26503 5.23335 9.375 4.87084 9.375 4.5C9.375 4.00272 9.17746 3.52581 8.82583 3.17417C8.47419 2.82254 7.99728 2.625 7.5 2.625ZM7.5 5.125C7.37639 5.125 7.25555 5.08834 7.15277 5.01967C7.04999 4.95099 6.96988 4.85338 6.92258 4.73918C6.87527 4.62497 6.86289 4.49931 6.88701 4.37807C6.91112 4.25683 6.97065 4.14547 7.05806 4.05806C7.14547 3.97065 7.25683 3.91112 7.37807 3.88701C7.49931 3.86289 7.62497 3.87527 7.73918 3.92258C7.85338 3.96988 7.95099 4.04999 8.01967 4.15277C8.08834 4.25555 8.125 4.37639 8.125 4.5C8.125 4.66576 8.05915 4.82473 7.94194 4.94194C7.82473 5.05915 7.66576 5.125 7.5 5.125Z" fill="#001A4A"/>
</svg>
