<svg width="13" height="10" viewBox="0 0 13 10" fill="none" xmlns="http://www.w3.org/2000/svg">
<path d="M3.375 6.375H5.25C5.41576 6.375 5.57473 6.30915 5.69194 6.19194C5.80915 6.07473 5.875 5.91576 5.875 5.75C5.875 5.58424 5.80915 5.42527 5.69194 5.30806C5.57473 5.19085 5.41576 5.125 5.25 5.125H3.375C3.20924 5.125 3.05027 5.19085 2.93306 5.30806C2.81585 5.42527 2.75 5.58424 2.75 5.75C2.75 5.91576 2.81585 6.07473 2.93306 6.19194C3.05027 6.30915 3.20924 6.375 3.375 6.375ZM10.875 0.125H2.125C1.62772 0.125 1.15081 0.322544 0.799175 0.674175C0.447544 1.02581 0.25 1.50272 0.25 2V7.625C0.25 8.12228 0.447544 8.59919 0.799175 8.95083C1.15081 9.30246 1.62772 9.5 2.125 9.5H10.875C11.3723 9.5 11.8492 9.30246 12.2008 8.95083C12.5525 8.59919 12.75 8.12228 12.75 7.625V2C12.75 1.50272 12.5525 1.02581 12.2008 0.674175C11.8492 0.322544 11.3723 0.125 10.875 0.125ZM11.5 7.625C11.5 7.79076 11.4342 7.94973 11.3169 8.06694C11.1997 8.18415 11.0408 8.25 10.875 8.25H2.125C1.95924 8.25 1.80027 8.18415 1.68306 8.06694C1.56585 7.94973 1.5 7.79076 1.5 7.625V3.875H11.5V7.625ZM11.5 2.625H1.5V2C1.5 1.83424 1.56585 1.67527 1.68306 1.55806C1.80027 1.44085 1.95924 1.375 2.125 1.375H10.875C11.0408 1.375 11.1997 1.44085 11.3169 1.55806C11.4342 1.67527 11.5 1.83424 11.5 2V2.625Z" fill="#001A4A"/>
</svg>
