<svg width="60" height="60" viewBox="0 0 60 60" fill="none" xmlns="http://www.w3.org/2000/svg">
<path d="M0.929 17.998L3.426 18.176C3.69 19.137 4.074 20.061 4.574 20.934L2.931 22.83C2.588 23.226 2.609 23.821 2.98 24.192L5.808 27.02C6.179 27.393 6.774 27.412 7.17 27.069L9.066 25.426C9.94 25.926 10.863 26.31 11.824 26.574L12.002 29.071C12.04 29.595 12.476 30 13 30H17C17.524 30 17.96 29.595 17.998 29.071L18.176 26.574C19.137 26.31 20.061 25.926 20.934 25.426L22.83 27.069C23.226 27.412 23.821 27.393 24.192 27.02L27.02 24.192C27.391 23.821 27.412 23.227 27.069 22.83L25.426 20.934C25.926 20.06 26.31 19.137 26.574 18.176L29.071 17.998C29.595 17.96 30 17.524 30 17V13C30 12.476 29.595 12.04 29.071 12.002L26.574 11.824C26.31 10.863 25.926 9.939 25.426 9.066L27.069 7.17C27.412 6.774 27.391 6.179 27.02 5.808L24.192 2.98C23.821 2.608 23.226 2.589 22.83 2.931L20.934 4.574C20.06 4.074 19.137 3.69 18.176 3.426L17.998 0.929C17.96 0.405 17.524 0 17 0H13C12.476 0 12.04 0.405 12.002 0.929L11.824 3.426C10.863 3.69 9.939 4.074 9.066 4.574L7.169 2.931C6.752 2.568 6.12 2.615 5.759 3.032C5.397 3.449 5.442 4.081 5.86 4.442L8.31 6.565C8.648 6.857 9.14 6.89 9.515 6.645C10.58 5.944 11.744 5.46 12.972 5.207C13.411 5.117 13.736 4.746 13.768 4.299L13.931 2H16.069L16.233 4.298C16.265 4.745 16.59 5.116 17.029 5.206C18.258 5.459 19.421 5.943 20.486 6.644C20.86 6.89 21.351 6.857 21.691 6.564L23.437 5.051L24.949 6.563L23.436 8.309C23.143 8.647 23.11 9.14 23.356 9.514C24.057 10.579 24.541 11.743 24.794 12.971C24.884 13.41 25.255 13.735 25.702 13.767L28 13.931V16.069L25.702 16.233C25.255 16.265 24.884 16.59 24.794 17.029C24.541 18.258 24.057 19.421 23.356 20.486C23.11 20.86 23.143 21.352 23.436 21.691L24.949 23.437L23.437 24.949L21.691 23.436C21.352 23.142 20.86 23.11 20.486 23.356C19.421 24.057 18.257 24.541 17.029 24.794C16.59 24.884 16.265 25.255 16.233 25.702L16.069 28H13.931L13.767 25.702C13.735 25.255 13.41 24.884 12.971 24.794C11.742 24.541 10.579 24.057 9.514 23.356C9.139 23.11 8.647 23.142 8.309 23.436L6.563 24.949L5.051 23.437L6.564 21.691C6.857 21.353 6.89 20.86 6.644 20.486C5.943 19.421 5.459 18.257 5.206 17.029C5.116 16.59 4.745 16.265 4.298 16.233L2 16.069V13.931L4.298 13.767C4.745 13.735 5.116 13.41 5.206 12.971C5.459 11.742 5.943 10.579 6.644 9.514C6.89 9.14 6.857 8.648 6.564 8.309L4.442 5.86C4.082 5.442 3.449 5.397 3.032 5.759C2.614 6.121 2.569 6.752 2.931 7.169L4.574 9.065C4.074 9.939 3.69 10.862 3.426 11.823L0.929 12.001C0.405 12.04 0 12.476 0 13V17C0 17.524 0.405 17.96 0.929 17.998Z" fill="#001A4A"/>
<path d="M15 23C19.411 23 23 19.411 23 15C23 10.589 19.411 7 15 7C10.589 7 7 10.589 7 15C7 19.411 10.589 23 15 23ZM14 9.09V10C14 10.552 14.448 11 15 11C15.552 11 16 10.552 16 10V9.09C18.507 9.513 20.486 11.493 20.91 14H20C19.448 14 19 14.448 19 15C19 15.552 19.448 16 20 16H20.91C20.487 18.507 18.507 20.486 16 20.91V20C16 19.448 15.552 19 15 19C14.448 19 14 19.448 14 20V20.91C11.493 20.487 9.514 18.507 9.09 16H10C10.552 16 11 15.552 11 15C11 14.448 10.552 14 10 14H9.09C9.514 11.493 11.493 9.514 14 9.09Z" fill="#001A4A"/>
<path d="M16.293 17.707C16.488 17.902 16.744 18 17 18C17.256 18 17.512 17.902 17.707 17.707C18.098 17.316 18.098 16.684 17.707 16.293L16 14.586V13C16 12.448 15.552 12 15 12C14.448 12 14 12.448 14 13V15C14 15.265 14.105 15.52 14.293 15.707L16.293 17.707Z" fill="#001A4A"/>
<path d="M58.6063 0.703705C57.7332 0.0477055 56.5853 -0.165294 55.5393 0.133706L41.5392 4.13371C39.6842 4.66371 38.6042 6.60471 39.1352 8.4607C39.6652 10.3137 41.6082 11.3927 43.4612 10.8637L48.5803 9.4017L44.4592 15.4127C42.1542 18.7727 39.4403 21.8667 36.3952 24.6067C35.9852 24.9767 35.9512 25.6087 36.3212 26.0197C36.6902 26.4297 37.3213 26.4627 37.7332 26.0947C40.8963 23.2477 43.7142 20.0347 46.1092 16.5447L51.8003 8.2447C52.0382 7.8967 52.0322 7.43671 51.7863 7.09471C51.5392 6.75271 51.1043 6.60271 50.7003 6.71771L42.9132 8.9427C42.1172 9.1687 41.2842 8.70671 41.0582 7.9137C40.8302 7.1187 41.2933 6.28671 42.0882 6.05871L56.0883 2.05871C56.5363 1.93171 57.0283 2.02171 57.4033 2.30271C57.7773 2.58271 58.0003 3.03071 58.0003 3.49971V18.4997C58.0003 19.3267 57.3273 19.9997 56.5003 19.9997C55.6733 19.9997 55.0003 19.3267 55.0003 18.4997V12.1077C55.0003 11.6697 54.7153 11.2817 54.2963 11.1527C53.8783 11.0237 53.4243 11.1807 53.1753 11.5427L48.5813 18.2417C38.3923 33.1007 21.5592 42.3547 3.49924 42.9997C2.68824 42.9997 2.03024 42.3647 2.00124 41.5537C1.97124 40.7267 2.62024 40.0297 3.44624 39.9997C14.6002 39.6027 25.6602 35.5857 34.5912 28.6897C35.0282 28.3527 35.1092 27.7247 34.7722 27.2867C34.4352 26.8507 33.8082 26.7677 33.3692 27.1067C24.7662 33.7497 14.1142 37.6187 3.37524 38.0007C2.44024 38.0347 1.57524 38.4297 0.938243 39.1137C0.301243 39.7977 -0.0307568 40.6897 0.00224325 41.6237C0.0702433 43.5167 1.60524 44.9997 3.49924 44.9997C3.51124 44.9997 3.61424 44.9987 3.62524 44.9977C22.2612 44.3317 39.6852 34.7527 50.2313 19.3727L53.0003 15.3337V18.4997C53.0003 20.4297 54.5703 21.9997 56.5003 21.9997C58.4303 21.9997 60.0003 20.4297 60.0003 18.4997V3.49971C60.0003 2.40771 59.4793 1.36271 58.6063 0.703705Z" fill="#001A4A"/>
<path d="M14 50H8C7.448 50 7 50.448 7 51V59C7 59.552 7.448 60 8 60H14C14.552 60 15 59.552 15 59V51C15 50.448 14.552 50 14 50ZM13 58H9V52H13V58Z" fill="#001A4A"/>
<path d="M25 46H19C18.448 46 18 46.448 18 47V59C18 59.552 18.448 60 19 60H25C25.552 60 26 59.552 26 59V47C26 46.448 25.552 46 25 46ZM24 58H20V48H24V58Z" fill="#001A4A"/>
<path d="M36 42H30C29.448 42 29 42.448 29 43V59C29 59.552 29.448 60 30 60H36C36.553 60 37 59.552 37 59V55C37 54.448 36.553 54 36 54C35.447 54 35 54.448 35 55V58H31V44H35V51C35 51.552 35.447 52 36 52C36.553 52 37 51.552 37 51V43C37 42.448 36.553 42 36 42Z" fill="#001A4A"/>
<path d="M47 35H41C40.447 35 40 35.448 40 36V59C40 59.552 40.447 60 41 60H47C47.553 60 48 59.552 48 59V36C48 35.448 47.553 35 47 35ZM46 58H42V37H46V58Z" fill="#001A4A"/>
<path d="M58 27H52C51.447 27 51 27.448 51 28V59C51 59.552 51.447 60 52 60H58C58.553 60 59 59.552 59 59V42C59 41.448 58.553 41 58 41C57.447 41 57 41.448 57 42V58H53V29H57V38C57 38.552 57.447 39 58 39C58.553 39 59 38.552 59 38V28C59 27.448 58.553 27 58 27Z" fill="#001A4A"/>
</svg>
