<svg width="60" height="60" viewBox="0 0 60 60" fill="none" xmlns="http://www.w3.org/2000/svg">
<path d="M52.7698 7.22394C51.9176 6.36988 50.1494 5.95269 44.0088 10.3374C39.9185 13.2577 34.9423 17.5899 29.996 22.5361C27.5782 24.9539 25.2823 27.4149 23.2188 29.7821C23.216 29.7849 23.2113 29.7858 23.2085 29.7886C23.2029 29.7943 23.201 29.8027 23.1954 29.8093C21.7591 31.4574 20.4429 33.0549 19.2851 34.5577C16.3919 33.8236 13.2579 34.6468 11.1298 36.7749C10.6516 37.2521 10.2194 37.8961 9.80882 38.7427C9.78913 38.7821 9.77319 38.8233 9.76007 38.8646C9.16288 40.1321 8.62476 41.8392 8.15788 43.9477C7.99194 44.7211 7.841 45.5086 7.70788 46.2642C7.1735 49.3477 6.96351 51.9239 6.95413 52.0327C6.92132 52.4461 7.16413 52.8324 7.55038 52.9814C8.63976 53.4033 9.86507 53.5889 11.1466 53.5889C14.7766 53.5889 18.8604 52.0927 21.5848 50.2083C22.2082 49.7799 22.7594 49.3289 23.2216 48.8667C25.3844 46.703 26.1926 43.6336 25.4416 40.7124C26.9444 39.5546 28.5419 38.2383 30.1901 36.8021C30.1957 36.7964 30.2041 36.7946 30.2098 36.7889C30.2126 36.7861 30.2135 36.7824 30.2163 36.7786C32.5835 34.7142 35.0454 32.4183 37.4623 30.0005C42.4066 25.0561 46.7388 20.0789 49.6601 15.9858C54.0429 9.84425 53.6248 8.07613 52.7707 7.223L52.7698 7.22394ZM23.2207 36.7758C22.5954 36.1514 21.8885 35.6471 21.1216 35.2486C21.9804 34.1499 22.9132 33.008 23.9229 31.8296L28.1688 36.0755C26.9904 37.0852 25.8476 38.018 24.7498 38.8777C24.3504 38.1099 23.846 37.4011 23.2207 36.7758ZM21.8951 47.5411C21.5144 47.9227 21.0523 48.2996 20.5188 48.6652C17.3885 50.8308 12.3476 52.3646 8.89194 51.4486C8.99038 50.4708 9.20038 48.6249 9.55382 46.5877C9.68319 45.8555 9.83038 45.0914 9.98976 44.3471C10.4388 42.323 10.9469 40.7143 11.5019 39.5668C11.5198 39.5311 11.5338 39.4946 11.5469 39.4571C11.8441 38.8627 12.1498 38.4061 12.4554 38.1014C14.2723 36.2846 16.9094 35.6733 19.3423 36.5077C20.3079 36.8377 21.1676 37.3739 21.896 38.1014C22.6226 38.8289 23.1598 39.6877 23.4898 40.6552C24.3241 43.0852 23.711 45.7242 21.8951 47.5411ZM36.1357 28.6749C33.9532 30.8583 31.7332 32.9433 29.5854 34.8399L25.1566 30.4111C27.0532 28.2633 29.1382 26.0443 31.3216 23.8608C42.2641 12.9202 50.006 8.23175 51.4301 8.56269C51.7741 9.98769 47.0726 17.7371 36.1357 28.6749Z" fill="#001A4A"/>
<path d="M33.3961 17.4306C33.8892 17.5656 34.4105 17.2741 34.5473 16.7725C34.6842 16.2728 34.3889 15.7572 33.8892 15.6213C28.7592 14.2234 23.2308 15.6925 19.4639 19.4603C16.0064 22.9178 14.467 27.8481 15.3464 32.6481C15.4289 33.1 15.8236 33.4169 16.267 33.4169C16.3233 33.4169 16.3795 33.4122 16.4376 33.4009C16.9467 33.3072 17.2833 32.8188 17.1905 32.3097C16.4226 28.1153 17.767 23.8075 20.7895 20.7859C24.082 17.4934 28.912 16.2072 33.3961 17.4306Z" fill="#001A4A"/>
<path d="M27.685 42.8064C27.1684 42.7145 26.6866 43.0501 26.5938 43.5592C26.5 44.0683 26.8375 44.5567 27.3466 44.6504C28.2372 44.8136 29.1306 44.8933 30.0203 44.8933C33.9241 44.8933 37.7191 43.3501 40.5353 40.5329C44.3031 36.7651 45.7731 31.2376 44.3744 26.1076C44.2375 25.6079 43.7181 25.3154 43.2231 25.4495C42.7234 25.5864 42.4281 26.1011 42.565 26.6008C43.7884 31.0839 42.5022 35.9148 39.2097 39.2073C36.1872 42.2298 31.8738 43.5732 27.685 42.8064Z" fill="#001A4A"/>
<path d="M57.6615 34.6301V25.363C57.6615 24.8745 57.2875 24.4686 56.8009 24.4283L51.5237 23.9942C51.0925 22.452 50.4972 20.9633 49.7509 19.5598C49.5072 19.1023 48.9428 18.9279 48.4825 19.1717C48.0259 19.4145 47.8515 19.9817 48.0953 20.4392C48.8734 21.9045 49.4734 23.472 49.8756 25.0995C49.9731 25.4904 50.3078 25.7754 50.709 25.8083L55.7856 26.2264V33.7667L50.709 34.1848C50.3078 34.2176 49.9731 34.5026 49.8756 34.8926C49.3769 36.897 48.5819 38.8123 47.5131 40.5851C47.305 40.9301 47.3406 41.3679 47.6012 41.6754L50.9012 45.5651L45.5668 50.8995L41.6762 47.5995C41.3706 47.3389 40.9318 47.3042 40.5859 47.5114C38.8131 48.5801 36.8987 49.3751 34.8943 49.8748C34.5043 49.9723 34.2193 50.307 34.1865 50.7073L33.7693 55.7839H26.229L25.8119 50.7073C25.779 50.3136 25.5025 49.9817 25.1209 49.8786C24.8622 49.8092 24.6034 49.7398 24.3512 49.6639C23.8515 49.5139 23.3322 49.797 23.184 50.2929C23.0359 50.7889 23.3172 51.3111 23.8131 51.4601C23.874 51.4789 23.9359 51.4967 23.9968 51.5145L24.4318 56.7983C24.4722 57.2848 24.879 57.6589 25.3665 57.6589H34.6337C35.1222 57.6589 35.5281 57.2848 35.5684 56.7983L36.0025 51.5211C37.735 51.0336 39.4009 50.3417 40.9712 49.4576L45.0147 52.887C45.3859 53.202 45.9381 53.1795 46.284 52.8345L52.84 46.2786C53.185 45.9336 53.2084 45.3814 52.8925 45.0092L49.4631 40.9658C50.3462 39.3954 51.039 37.7295 51.5256 35.997L56.8028 35.5629C57.2893 35.5236 57.6634 35.1167 57.6634 34.6283L57.6615 34.6301Z" fill="#001A4A"/>
<path d="M3.19656 24.429C2.71 24.4684 2.33594 24.8753 2.33594 25.3637V34.6309C2.33594 35.1193 2.71 35.5253 3.19656 35.5656L8.47844 36.0006C8.5 36.0728 8.5225 36.145 8.54406 36.2162C8.67062 36.6165 9.04 36.8725 9.43844 36.8725C9.53219 36.8725 9.62594 36.8584 9.72062 36.8284C10.2137 36.6728 10.4884 36.1459 10.3328 35.6528C10.255 35.4062 10.1828 35.155 10.1219 34.9037C10.0281 34.509 9.69156 34.2193 9.28656 34.1856L4.21 33.7675V26.2271L9.28656 25.809C9.68781 25.7762 10.0225 25.4912 10.12 25.1012C10.6187 23.0959 11.4147 21.1806 12.4834 19.4096C12.6916 19.0646 12.6559 18.6259 12.3953 18.3184L9.09531 14.4287L14.4297 9.09434L18.3194 12.3943C18.625 12.655 19.0637 12.6896 19.4097 12.4825C21.1825 11.4137 23.0978 10.6187 25.1022 10.119C25.4922 10.0215 25.7772 9.68684 25.81 9.28652L26.2272 4.20996H33.7675L34.1847 9.28652C34.2184 9.68777 34.5034 10.0225 34.8934 10.12C36.52 10.5231 38.0884 11.1231 39.5537 11.9012C40.0131 12.144 40.5794 11.9706 40.8222 11.5131C41.0659 11.0556 40.8916 10.4884 40.435 10.2456C39.0316 9.49934 37.5419 8.90402 36.0006 8.47184L35.5666 3.19559C35.5262 2.70902 35.1194 2.33496 34.6319 2.33496H25.3647C24.8763 2.33496 24.4703 2.70902 24.43 3.19559L23.9959 8.47277C22.2634 8.96027 20.5966 9.65215 19.0263 10.5353L14.9838 7.1059C14.6125 6.7909 14.0603 6.8134 13.7144 7.1584L7.15844 13.7143C6.81344 14.0593 6.79 14.6115 7.10594 14.9837L10.5353 19.0262C9.65125 20.5965 8.95844 22.2625 8.47188 23.995L3.19469 24.429H3.19656Z" fill="#001A4A"/>
</svg>
