<svg width="13" height="13" viewBox="0 0 13 13" fill="none" xmlns="http://www.w3.org/2000/svg">
<path d="M12.125 7.75H11.5V0.875C11.5 0.70924 11.4342 0.550268 11.3169 0.433058C11.1997 0.315848 11.0408 0.25 10.875 0.25H2.125C1.95924 0.25 1.80027 0.315848 1.68306 0.433058C1.56585 0.550268 1.5 0.70924 1.5 0.875V7.75H0.875C0.70924 7.75 0.550268 7.81585 0.433058 7.93306C0.315848 8.05027 0.25 8.20924 0.25 8.375C0.25 8.54076 0.315848 8.69973 0.433058 8.81694C0.550268 8.93415 0.70924 9 0.875 9H5.875V9.71875L3.03125 11.5937C2.91458 11.666 2.82492 11.7746 2.77611 11.9028C2.72729 12.031 2.72202 12.1718 2.76112 12.3033C2.80022 12.4348 2.88152 12.5498 2.99246 12.6305C3.1034 12.7113 3.23783 12.7532 3.375 12.75C3.49788 12.7514 3.6181 12.7142 3.71875 12.6437L5.875 11.2187V12.125C5.875 12.2908 5.94085 12.4497 6.05806 12.5669C6.17527 12.6842 6.33424 12.75 6.5 12.75C6.66576 12.75 6.82473 12.6842 6.94194 12.5669C7.05915 12.4497 7.125 12.2908 7.125 12.125V11.2187L9.28125 12.6437C9.3819 12.7142 9.50212 12.7514 9.625 12.75C9.75853 12.749 9.88822 12.7052 9.99506 12.6251C10.1019 12.545 10.1803 12.4328 10.2187 12.3049C10.2572 12.177 10.2536 12.0402 10.2086 11.9145C10.1637 11.7887 10.0796 11.6807 9.96875 11.6063L7.125 9.73125V9H12.125C12.2908 9 12.4497 8.93415 12.5669 8.81694C12.6842 8.69973 12.75 8.54076 12.75 8.375C12.75 8.20924 12.6842 8.05027 12.5669 7.93306C12.4497 7.81585 12.2908 7.75 12.125 7.75ZM10.25 7.75H2.75V1.5H10.25V7.75ZM4.625 6.5C4.72794 6.49947 4.82916 6.47352 4.91966 6.42445C5.01015 6.37539 5.08713 6.30473 5.14375 6.21875L5.975 4.96875L6.68125 5.68125C6.74683 5.74723 6.8263 5.79774 6.91389 5.8291C7.00147 5.86046 7.09495 5.87187 7.1875 5.8625C7.27965 5.85239 7.36839 5.82191 7.4473 5.77326C7.52621 5.72462 7.59332 5.65903 7.64375 5.58125L8.89375 3.70625C8.96736 3.56902 8.98709 3.40925 8.94907 3.25824C8.91106 3.10722 8.81803 2.97584 8.68822 2.88982C8.55841 2.8038 8.40116 2.76934 8.24727 2.79319C8.09338 2.81704 7.95394 2.89747 7.85625 3.01875L7.025 4.26875L6.31875 3.55625C6.25317 3.49027 6.1737 3.43975 6.08611 3.4084C5.99853 3.37704 5.90505 3.36563 5.8125 3.375C5.72035 3.38511 5.63161 3.41559 5.5527 3.46424C5.47379 3.51288 5.40668 3.57847 5.35625 3.65625L4.10625 5.53125C4.01579 5.66904 3.98343 5.83699 4.01621 5.99852C4.04898 6.16006 4.14424 6.30211 4.28125 6.39375C4.3819 6.46424 4.50212 6.5014 4.625 6.5V6.5Z" fill="#001A4A"/>
</svg>
