<svg width="11" height="13" viewBox="0 0 11 13" fill="none" xmlns="http://www.w3.org/2000/svg">
<path d="M10.2688 1.2812C10.1961 1.22246 10.1113 1.18074 10.0204 1.15911C9.92959 1.13748 9.83504 1.13649 9.74375 1.1562C9.0759 1.29616 8.38647 1.29795 7.7179 1.16144C7.04933 1.02493 6.41578 0.75302 5.85625 0.362449C5.75163 0.289869 5.62734 0.250977 5.5 0.250977C5.37267 0.250977 5.24838 0.289869 5.14375 0.362449C4.58423 0.75302 3.95068 1.02493 3.28211 1.16144C2.61354 1.29795 1.92411 1.29616 1.25625 1.1562C1.16497 1.13649 1.07042 1.13748 0.979566 1.15911C0.888714 1.18074 0.803863 1.22246 0.731254 1.2812C0.658741 1.34002 0.600329 1.41435 0.560311 1.49871C0.520293 1.58307 0.499686 1.67533 0.500004 1.7687V6.42495C0.499448 7.32104 0.712987 8.2043 1.12284 9.00117C1.53269 9.79805 2.12699 10.4855 2.85625 11.0062L5.1375 12.6312C5.24335 12.7066 5.37006 12.7471 5.5 12.7471C5.62994 12.7471 5.75665 12.7066 5.8625 12.6312L8.14375 11.0062C8.87302 10.4855 9.46732 9.79805 9.87717 9.00117C10.287 8.2043 10.5006 7.32104 10.5 6.42495V1.7687C10.5003 1.67533 10.4797 1.58307 10.4397 1.49871C10.3997 1.41435 10.3413 1.34002 10.2688 1.2812ZM9.25 6.42495C9.25048 7.12167 9.08456 7.80843 8.76604 8.42809C8.44751 9.04774 7.98561 9.58235 7.41875 9.98745L5.5 11.3562L3.58125 9.98745C3.0144 9.58235 2.55249 9.04774 2.23397 8.42809C1.91545 7.80843 1.74952 7.12167 1.75 6.42495V2.48745C3.06027 2.59959 4.37253 2.29559 5.5 1.6187C6.62748 2.29559 7.93974 2.59959 9.25 2.48745V6.42495Z" fill="#001A4A"/>
</svg>
