<svg width="13" height="13" viewBox="0 0 13 13" fill="none" xmlns="http://www.w3.org/2000/svg">
<path d="M12.125 3.55V2.125C12.125 1.4375 11.5625 0.875 10.875 0.875H2.125C1.43125 0.875 0.875 1.4375 0.875 2.125V10.875C0.875 11.5625 1.43125 12.125 2.125 12.125H10.875C11.5625 12.125 12.125 11.5625 12.125 10.875V9.45C12.4937 9.23125 12.75 8.8375 12.75 8.375V4.625C12.75 4.1625 12.4937 3.76875 12.125 3.55ZM11.5 4.625V8.375H7.125V4.625H11.5ZM2.125 10.875V2.125H10.875V3.375H7.125C6.4375 3.375 5.875 3.9375 5.875 4.625V8.375C5.875 9.0625 6.4375 9.625 7.125 9.625H10.875V10.875H2.125Z" fill="#001A4A"/>
</svg>
