<svg width="14" height="13" viewBox="0 0 14 13" fill="none" xmlns="http://www.w3.org/2000/svg">
<path d="M6.875 0.25C5.63887 0.25 4.4305 0.616556 3.40269 1.30331C2.37488 1.99007 1.5738 2.96619 1.10076 4.10823C0.627708 5.25027 0.503937 6.50693 0.745095 7.71931C0.986252 8.9317 1.58151 10.0453 2.45559 10.9194C3.32966 11.7935 4.44331 12.3888 5.65569 12.6299C6.86807 12.8711 8.12474 12.7473 9.26677 12.2742C10.4088 11.8012 11.3849 11.0001 12.0717 9.97231C12.7584 8.94451 13.125 7.73613 13.125 6.5C13.125 5.67924 12.9633 4.86651 12.6493 4.10823C12.3352 3.34994 11.8748 2.66095 11.2944 2.08058C10.7141 1.50022 10.0251 1.03984 9.26677 0.725753C8.50849 0.411661 7.69576 0.25 6.875 0.25V0.25ZM6.875 11.5C5.8861 11.5 4.9194 11.2068 4.09715 10.6573C3.27491 10.1079 2.63404 9.32705 2.25561 8.41342C1.87717 7.49979 1.77815 6.49445 1.97108 5.52455C2.164 4.55464 2.64021 3.66373 3.33947 2.96447C4.03873 2.2652 4.92965 1.789 5.89955 1.59607C6.86946 1.40315 7.87479 1.50216 8.78842 1.8806C9.70205 2.25904 10.4829 2.8999 11.0324 3.72215C11.5818 4.54439 11.875 5.51109 11.875 6.5C11.875 7.82608 11.3482 9.09785 10.4105 10.0355C9.47286 10.9732 8.20109 11.5 6.875 11.5V11.5ZM8.8125 6.89375L7.5 6.1375V3.375C7.5 3.20924 7.43415 3.05027 7.31694 2.93306C7.19973 2.81585 7.04076 2.75 6.875 2.75C6.70924 2.75 6.55027 2.81585 6.43306 2.93306C6.31585 3.05027 6.25 3.20924 6.25 3.375V6.5C6.25 6.5 6.25 6.55 6.25 6.575C6.2537 6.61806 6.26425 6.66026 6.28125 6.7C6.29412 6.73708 6.31088 6.7727 6.33125 6.80625C6.34836 6.84177 6.36931 6.87531 6.39375 6.90625L6.49375 6.9875L6.55 7.04375L8.175 7.98125C8.27025 8.03524 8.37802 8.06326 8.4875 8.0625C8.62589 8.06347 8.76068 8.01848 8.87074 7.93459C8.98081 7.8507 9.05992 7.73265 9.09566 7.59896C9.13141 7.46526 9.12177 7.32349 9.06826 7.19586C9.01476 7.06824 8.9204 6.96198 8.8 6.89375H8.8125Z" fill="#001A4A"/>
</svg>
