<?xml version="1.0" encoding="UTF-8"?>
<svg id="Camada_2" data-name="Camada 2" xmlns="http://www.w3.org/2000/svg" viewBox="0 0 569.06 639.96">
  <defs>
    <style>
      .cls-1 {
        fill: #fff;
      }

      .cls-2 {
        fill: #12214a;
      }

      .cls-3 {
        fill: #abe1fa;
      }
    </style>
  </defs>
  <g id="Layer_1" data-name="Layer 1">
    <g>
      <path class="cls-2" d="M565.51,452.36V187.59c0-18.46-9.85-35.52-25.84-44.76L310.37,10.45c-15.99-9.23-35.69-9.23-51.68,0L29.39,142.84c-15.99,9.23-25.84,26.29-25.84,44.76v264.77c0,18.46,9.85,35.52,25.84,44.76l229.3,132.39c15.99,9.23,35.69,9.23,51.68,0l229.3-132.39c15.99-9.23,25.84-26.29,25.84-44.76Z"/>
      <path class="cls-1" d="M295.81,445.49v-108.66h23.22l42.8,66.97h.79v-66.97h21.48v108.66h-21.32l-44.7-70.6h-.79v70.6h-21.48Z"/>
      <path class="cls-1" d="M401.55,445.49v-108.66h22.43v44.22h11.53l33.01-44.22h24.48l-39.49,51.96,39.96,56.7h-25.74l-32.22-46.12h-11.53v46.12h-22.43Z"/>
      <path class="cls-1" d="M145.34,272.78h-48.02v44.38h-21.73v-108.66h21.73v43.16h48.02v-43.16h21.73v108.66h-21.73v-44.38Z"/>
      <path class="cls-1" d="M75.58,336.82l64.73-.71c8.51,0,15.32,2.53,20.44,7.6,5.11,5.07,7.67,11.7,7.67,19.91v1.37c0,5.27-1.09,9.9-3.27,13.91-2.18,4-5.24,7.07-9.19,9.2,4.86,2.13,8.61,5.42,11.25,9.88,2.63,4.46,3.95,9.78,3.95,15.96v2.13c0,8.61-2.81,15.55-8.43,20.82-5.62,5.27-13.05,7.9-22.26,7.9l-64.88.71v-108.66ZM143.73,377.07c2.08-1.87,3.12-4.48,3.12-7.83v-1.98c0-3.24-1.06-5.8-3.19-7.67-2.13-1.87-4.66-2.81-7.6-2.81l-38.89.71v23.1l38.89-.71c3.04,0,5.6-.94,7.68-2.81ZM146.31,421.07c2.18-1.92,3.27-4.56,3.27-7.9v-2.13c0-3.44-1.09-6.13-3.27-8.05-2.18-1.92-4.79-2.89-7.83-2.89l-41.32.71v23.86l41.32-.71c3.04,0,5.65-.96,7.83-2.89Z"/>
      <path class="cls-1" d="M314.16,313.16c-6.28-3.3-11.2-8.03-14.75-14.19-3.55-6.16-5.33-13.29-5.33-21.4v-69.07h22.09v68.17c0,6.91,1.78,12.04,5.33,15.39,3.55,3.36,8.57,5.03,15.06,5.03h6.64c6.49,0,11.51-1.67,15.06-5.03,3.55-3.35,5.33-8.48,5.33-15.39v-68.17h22.24v69.07c0,8.11-1.78,15.24-5.33,21.4-3.55,6.16-8.49,10.89-14.83,14.19-6.33,3.3-13.47,4.96-21.39,4.96h-8.8c-7.93,0-15.04-1.65-21.32-4.96Z"/>
      <path class="cls-1" d="M399.87,287.36c-.11-.88-.16-2.4-.16-4.56h23.12c0,5.89,1.77,9.91,5.31,12.07,3.54,2.16,9,3.24,16.39,3.24h5.7c6.44,0,11.16-1.01,14.17-3.02,3.01-2.01,4.51-4.78,4.51-8.31,0-3.24-1.11-5.74-3.33-7.5-2.22-1.77-5.65-3.14-10.29-4.12l-22.01-4.86c-7.29-1.57-13.07-3.21-17.34-4.93-4.27-1.72-7.92-4.56-10.93-8.53-3.01-3.97-4.51-9.59-4.51-16.85,0-10.01,3.56-17.75,10.69-23.25,7.13-5.49,17.97-8.24,32.54-8.24h3.01c13.51,0,23.78,2.57,30.8,7.72,7.02,5.15,11.01,12.78,11.96,22.88.1.98.16,2.55.16,4.71h-23.12c0-5.89-1.64-9.96-4.91-12.21-3.27-2.26-8.66-3.38-16.15-3.38h-2.69c-12.78,0-19.16,3.78-19.16,11.33,0,3.24,1.16,5.74,3.48,7.5,2.32,1.77,5.65,3.14,9.98,4.12l21.85,5.15c7.18,1.67,12.96,3.38,17.34,5.15,4.38,1.77,8.1,4.66,11.17,8.68,3.06,4.02,4.59,9.52,4.59,16.48,0,9.71-3.67,17.39-11.01,23.03-7.34,5.64-18.08,8.46-32.23,8.46h-6.02c-26.71,0-41.01-10.25-42.92-30.75Z"/>
      <polygon class="cls-3" points="232.55 360.99 263.85 445.49 287.41 445.49 244.25 336.82 220.84 336.82 177.38 445.49 200.94 445.49 232.55 360.99"/>
      <polygon class="cls-3" points="232.55 232.66 263.85 317.16 287.41 317.16 244.25 208.5 220.84 208.5 177.38 317.16 200.94 317.16 232.55 232.66"/>
      <path class="cls-3" d="M284.53,639.96c-9.55,0-19.1-2.46-27.61-7.38L27.61,500.19c-17.03-9.83-27.61-28.16-27.61-47.83V187.59c0-19.67,10.58-38,27.61-47.83L256.92,7.38c17.03-9.83,38.2-9.83,55.23,0l229.3,132.39c17.03,9.83,27.61,28.16,27.61,47.83v264.77c0,19.67-10.58,38-27.61,47.83l-229.3,132.39c-8.52,4.92-18.07,7.38-27.61,7.38ZM284.53,7.1c-8.32,0-16.64,2.14-24.06,6.43L31.16,145.91c-14.84,8.57-24.06,24.54-24.06,41.68v264.77c0,17.14,9.22,33.11,24.07,41.68l229.3,132.39c14.84,8.57,33.29,8.57,48.13,0l229.3-132.39c14.84-8.57,24.06-24.54,24.06-41.68V187.59c0-17.14-9.22-33.11-24.06-41.68L308.59,13.52c-7.42-4.29-15.74-6.43-24.07-6.43Z"/>
    </g>
  </g>
</svg>